<svg version="1.2" xmlns="http://www.w3.org/2000/svg" viewBox="60 175 1380 150" width="1380" height="150"><style>path,.a{fill:#e4e4e4}</style><path  d="m982.3 282.6v-24.4h13.5c5.1 0 9.4-0.7 13-2.4 3.5-1.6 6.3-3.9 8.2-7 1.8-3.1 2.8-6.8 2.8-11 0-4.1-1-7.8-2.8-10.9-2-3.2-4.7-5.7-8.3-7.5-3.7-1.7-7.9-2.7-13-2.7h-25.2v65.8h11.8zm13.5-33.7h-13.5v-22.6h13.5c2.8 0 5.2 0.6 7 1.6 1.8 1.1 3.2 2.5 4 4.3 0.9 1.7 1.4 3.6 1.4 5.8 0 3.3-1 6-3 8-2 1.9-5.1 2.9-9.4 2.9zm53.1 34.5q7 0 12.2-3.2c3.5-2.1 6.1-5.1 7.9-8.8 1.8-3.8 2.7-8.1 2.7-12.8v-0.9c0-4.8-0.9-9-2.7-12.8-1.8-3.7-4.4-6.7-7.9-8.9-3.5-2.1-7.5-3.1-12.3-3.1-4.6 0-8.7 1-12 3.1-3.5 2.2-6.1 5.2-8 8.9-1.8 3.8-2.7 8-2.7 12.8v0.9c0 4.7 0.9 9 2.7 12.8 1.9 3.7 4.5 6.7 8 8.8q5.2 3.2 12.1 3.2zm0-9c-3.8 0-6.7-1.5-8.7-4.5-1.9-3-2.9-6.7-2.9-11.4v-0.9c0-3 0.4-5.6 1.3-8.1 0.9-2.4 2.1-4.3 3.9-5.6 1.7-1.5 3.8-2.2 6.3-2.2 2.6 0 4.8 0.7 6.5 2.2 1.7 1.4 3 3.2 3.8 5.6 0.9 2.5 1.3 5.1 1.3 8.1v0.9c0 3-0.4 5.7-1.3 8-0.8 2.4-2.1 4.3-3.8 5.7-1.7 1.5-3.9 2.2-6.4 2.2zm43.8 8.2v-69.4h-11.2v69.4zm16.2 19.6c4.2 0 7.5-1.2 9.8-3.6 2.3-2.4 4.1-5.3 5.3-8.7l19.5-56.3h-12l-9.8 32.8-10.1-32.8h-12.2l17.2 48.7-1.6 4.1c-0.7 2.4-1.9 4.1-3.2 5q-2.2 1.5-6.1 1.5l-2.1-0.1v8.6c2.1 0.6 3.8 0.8 5.3 0.8zm52-19.6v-35.4c1.8-3.4 4.8-5.3 9.1-5.3 2.8 0 5.1 0.7 6.5 2.1 1.5 1.5 2.2 3.8 2.2 7.1v31.6h11.2v-32.6-1c0.7-2.2 1.8-3.9 3.4-5.1 1.6-1.3 3.6-2 5.9-2 2.9 0 5 0.7 6.5 2 1.4 1.3 2.1 3.6 2.1 6.9v31.7h11.2v-31.6c0-6.3-1.4-10.9-4.2-13.8q-4-4.3-11.8-4.3c-3.3 0-6.2 0.6-8.7 1.9-2.5 1.3-4.7 3.2-6.3 5.5-1.3-2.5-3-4.5-5.3-5.6-2.3-1.3-4.9-1.8-8-1.8-3 0-5.7 0.4-8.1 1.5-2.3 1.1-4.4 2.5-6 4.5l-0.4-5.1h-10.5v48.9h11.2zm84.2 0.8q4.1 0 7.3-1.4c2.1-1 3.9-2.3 5.5-4 0.4 2 0.8 3.5 1.2 4.6h11.5v-0.8c-1.2-2.6-1.8-6.2-1.8-10.6v-21.6c0-3.6-0.8-6.7-2.4-9.2-1.7-2.5-3.9-4.5-6.7-5.7-2.9-1.3-6.2-1.9-9.8-1.9-4 0-7.6 0.6-10.6 2.1-3.1 1.4-5.6 3.3-7.2 5.6-1.6 2.3-2.5 4.7-2.5 7.3h11.2c0-1.2 0.4-2.3 1.1-3.4q1-1.4 2.9-2.3 1.8-0.9 4.3-0.9c2.8 0 4.8 0.8 6.3 2.3 1.4 1.4 2.1 3.4 2.1 6v3.2h-6.8c-7.1 0-12.5 1.4-16.5 4.2-3.8 2.8-5.8 6.7-5.8 11.9 0 2.8 0.7 5.4 2.2 7.6 1.4 2.2 3.3 3.9 5.9 5.2 2.6 1.2 5.4 1.8 8.6 1.8zm2.2-9c-2.5 0-4.3-0.5-5.6-1.8-1.4-1.2-2.1-2.9-2.1-4.8 0-2.6 1-4.6 3-6 2.1-1.4 5-2.1 8.9-2.1h5.9v9.1c-0.9 1.5-2.2 2.8-4 4-1.7 1.2-3.8 1.6-6.1 1.6zm44 8.2v-33.3c1.7-3.8 5.1-5.6 10.1-5.6 1.5 0 3 0.1 4.4 0.3l0.1-10.6c-0.3-0.2-0.9-0.3-1.7-0.4-0.8-0.1-1.5-0.2-2.1-0.2-2.4 0-4.6 0.6-6.4 1.7-1.8 1.1-3.4 2.7-4.6 4.7l-0.3-5.5h-10.7v48.9zm32.7 0v-15.9l4.9-5 14.2 20.9h13l-19.9-28.6 18.1-20.4h-13.5l-13.3 15.2-3.4 4.1v-39.7h-11.2v69.4zm58.7 0.8c4.4 0 8.3-0.8 11.5-2.6 3.1-1.7 5.6-3.9 7.4-6.5l-6-5.8c-3.1 3.9-7.1 5.9-12.1 5.9-2.6 0-4.7-0.5-6.5-1.6-1.9-1.1-3.3-2.6-4.5-4.5-1-2-1.7-4.2-1.9-6.7h31.9v-4.7c0-4.8-0.8-9-2.4-12.7-1.5-3.6-3.8-6.4-7-8.5-3.1-2-7-2.9-11.6-2.9-4.2 0-8 1-11.4 3-3.3 2.2-6 5.1-7.9 8.8-1.9 3.8-2.9 8.2-2.9 13.2v1.9c0 4.4 1 8.5 2.8 12 2 3.6 4.7 6.4 8.2 8.5 3.5 2.2 7.6 3.2 12.4 3.2zm8.6-29.9h-20.5c0.5-3.7 1.6-6.6 3.5-8.6 1.8-2 4.1-3.1 7.1-3.1 3.3 0 5.8 1.1 7.4 3.1q2.3 3.1 2.6 7.8v0.8zm35 29.9c2.7 0 5.1-0.4 7.3-1v-8.7c-1.3 0.3-2.6 0.5-3.8 0.5-1.7 0-3-0.4-3.8-1.1-0.9-0.8-1.2-2.1-1.2-4.2v-26.8h8.5v-8.3h-8.5v-11.9h-11.2v11.9h-8v8.3h8v27.6c0 4.8 1.1 8.3 3.4 10.5q3.4 3.2 9.3 3.2z"/><path class="a" d="m923.3 324.2l-117.9-33.7v-80.8l117.9-33.7zm-11.4-64.7l-86.7 24.7 86.7 24.8zm-95.1-34.2v49.5l86.7-24.7zm95-34.3l-86.6 24.8 86.6 24.7z"/><path  d="m66.6 215v-1.9q2.4 0.1 6.3 0.2 3.9 0.1 7.7 0.1 4.8 0 9.1-0.1 4.4-0.1 6.2-0.1 13.2 0 19.6 5.4 6.6 5.4 6.6 14 0 3.6-1.3 7.5-1.3 3.9-4.6 7.2-3 3.3-8.6 5.4-5.4 2.1-13.8 2.1h-9.9v-2h8.9q6.2 0 9.4-2.7 3.3-2.7 4.5-7 1.2-4.3 1.2-9.4 0-9.4-3.1-14-3.1-4.7-10.5-4.7-4.1 0-5.4 1.7-1.2 1.7-1.2 6.8v48.6q0 3.8 0.8 5.7 0.8 1.8 3 2.4 2.3 0.6 6.6 0.7v2.1q-2.9-0.2-7.4-0.2-4.6-0.1-9.4-0.1-4.2 0-8 0.1-3.8 0-6.7 0.2v-2q3.2-0.2 4.8-0.8 1.7-0.6 2.2-2.3 0.6-1.8 0.6-5.4v-49q0-3.6-0.6-5.3-0.5-1.8-2.2-2.4-1.6-0.7-4.8-0.8zm62 9.9v-2q2.2 0.1 5.8 0.2 3.6 0.1 7.1 0.1 4.7 0 9-0.1 4.3-0.1 6.1-0.1 13 0 19.1 4.3 6.1 4.1 6.1 10.8 0 2.8-1.3 5.7-1.2 2.8-4.1 5.2-3 2.5-8.1 4.2-5.1 1.6-12.9 1.8l-10.7 0.4q0 0 0-0.9 0-1 0-1h9.7q5.6 0 8.4-1.9 3.1-1.9 4.1-5.1 1-3.4 1-7.3 0-6.9-2.9-10.5-2.9-3.8-10.1-3.8-3.4 0-4.5 1.7-1 1.7-1 6.8v39.1q0 3.6 0.5 5.4 0.6 1.7 2.2 2.3 1.7 0.6 4.9 0.8v2q-2.6-0.2-6.7-0.2-4.1-0.1-8.2-0.1-4.1 0-7.7 0.1-3.6 0-5.8 0.2v-2q3.3-0.2 4.9-0.8 1.6-0.6 2.2-2.3 0.5-1.8 0.5-5.4v-39.1q0-3.6-0.5-5.4-0.6-1.8-2.3-2.4-1.6-0.6-4.8-0.7zm18.4 30.5v-1.1q5.3 0.2 8.1 0.3 2.9 0.1 4.5 0.2 1.7 0 3.5 0.2 5.9 0.7 9.9 3 4.1 2.2 5.4 7.7l2.1 8.9q0.7 3.1 1.6 4.4 1 1.1 2.5 1.1 1.2 0 2.4-0.7 1.3-0.8 2.3-1.8l1.4 1.3q-2.1 2.4-4.9 4-2.7 1.5-7 1.5-5.5 0-8.3-2.3-2.7-2.4-3.5-5.6l-3-11.9q-1.2-5.8-3.7-7.4-2.5-1.8-6.9-1.8zm94.9-32.5q-0.4 3.4-0.5 6.7-0.2 3.1-0.2 4.8 0 1.8 0.1 3.5 0.1 1.5 0.2 2.6h-2.2q-1.3-8.6-4.7-11.9-3.3-3.4-9.5-3.4h-4.9q-2.7 0-4.2 0.5-1.5 0.4-2.1 2-0.5 1.4-0.5 4.5v41.5q0 3.1 0.5 4.7 0.6 1.4 2.1 1.9 1.5 0.4 4.2 0.4h5.2q4.7 0 7.9-1.6 3.2-1.6 5.1-5.4 2-3.9 2.8-10.3h2.3q-0.3 2.7-0.3 7.2 0 1.8 0.1 5.3 0.2 3.4 0.6 7.1-4.8-0.2-10.9-0.2-6-0.1-10.7-0.1-3.1 0-8.2 0-5.1 0-10.8 0.1-5.6 0-10.6 0.2v-2q3.2-0.2 4.8-0.8 1.6-0.6 2.2-2.3 0.6-1.8 0.6-5.4v-39.1q0-3.6-0.6-5.3-0.6-1.8-2.3-2.4-1.5-0.7-4.7-0.8v-2q5 0.1 10.6 0.2 5.7 0.1 10.8 0.1 5.1 0 8.2 0 4.3 0 9.8 0 5.5-0.1 9.8-0.3zm-31.5 28.9h16.8q0 0-0.1 1 0.1 1 0.1 1h-16.8q0 0 0-1 0-1 0-1zm18.2-10.5h2.3q-0.4 4.6-0.4 7 0.1 2.5 0.1 4.5 0 2 0 4.4 0.2 2.5 0.6 7h-2.3q-0.3-2.6-1.4-5-0.9-2.4-2.9-3.9-1.9-1.5-5.4-1.5v-2q3.5 0 5.4-1.8 1.9-1.8 2.7-4.2 1-2.5 1.3-4.5zm47.9-19.7q5 0 8 1.2 3 1 5.2 2.4 1.2 0.7 1.9 1.1 0.8 0.3 1.5 0.3 1 0 1.4-1.1 0.4-1.2 0.7-3.2h2.3q-0.1 1.6-0.3 3.9-0.1 2.2-0.2 6 0 3.7 0 9.8h-2.2q-0.6-5.3-2.8-9.4-2.1-4.2-5.7-6.5-3.6-2.5-8.9-2.5-5 0-8.2 2.4-3.1 2.4-3.1 6.1 0 3.3 2.1 5.8 2.1 2.4 5.7 4.6 3.6 2.1 8 4.7 4.9 2.7 9 5.6 4.2 2.8 6.7 6.4 2.6 3.5 2.6 8.4 0 5.5-3.1 9.3-3 3.7-8.3 5.6-5.1 1.9-11.6 1.9-5.3 0-8.8-1.3-3.5-1.3-5.9-2.5-1.2-0.7-2-1-0.8-0.3-1.4-0.3-1 0-1.5 1.1-0.4 1.1-0.7 3.3h-2.3q0.2-2 0.2-4.7 0.1-2.9 0.1-7.4 0.1-4.4 0.1-11.2h2.3q0.5 6.3 2.6 11.2 2.1 5 6.2 7.8 4.1 2.8 10.4 2.8 2.7 0 5.3-0.9 2.7-1 4.4-3.1 1.6-2.3 1.6-5.7 0-3.1-1.7-5.3-1.7-2.4-5-4.4-3.1-2.3-7.5-4.7-4.9-2.7-9.2-5.6-4.1-3-6.7-6.6-2.6-3.7-2.6-8.5 0-5.3 2.9-8.7 2.9-3.6 7.7-5.4 4.9-1.7 10.8-1.7zm81.4 1.3q-0.4 3.4-0.5 6.7-0.2 3.1-0.2 4.8 0 1.8 0.1 3.5 0.1 1.5 0.2 2.6h-2.2q-1.3-8.6-4.7-11.9-3.3-3.4-9.5-3.4h-4.9q-2.7 0-4.2 0.5-1.5 0.4-2.1 2-0.5 1.4-0.5 4.5v41.5q0 3.1 0.5 4.7 0.6 1.4 2.1 1.9 1.5 0.4 4.2 0.4h5.2q4.7 0 7.9-1.6 3.2-1.6 5.1-5.4 2-3.9 2.8-10.3h2.3q-0.3 2.7-0.3 7.2 0 1.8 0.1 5.3 0.2 3.4 0.6 7.1-4.8-0.2-10.9-0.2-6-0.1-10.7-0.1-3.1 0-8.2 0-5.1 0-10.8 0.1-5.6 0-10.6 0.2v-2q3.2-0.2 4.8-0.8 1.6-0.6 2.2-2.3 0.6-1.8 0.6-5.4v-39.1q0-3.6-0.6-5.3-0.6-1.8-2.3-2.4-1.5-0.7-4.7-0.8v-2q5 0.1 10.6 0.2 5.7 0.1 10.8 0.1 5.1 0 8.2 0 4.3 0 9.8 0 5.5-0.1 9.8-0.3zm-31.5 28.9h16.8q0 0-0.1 1 0.1 1 0.1 1h-16.8q0 0 0-1 0-1 0-1zm18.2-10.5h2.3q-0.4 4.6-0.4 7 0.1 2.5 0.1 4.5 0 2 0 4.4 0.2 2.5 0.6 7h-2.3q-0.3-2.6-1.4-5-0.9-2.4-2.9-3.9-1.9-1.5-5.4-1.5v-2q3.5 0 5.4-1.8 1.9-1.8 2.7-4.2 1-2.5 1.3-4.5zm84.3-18.4v2q-3.2 0.3-4.8 1.4-1.7 0.9-2.3 3.2-0.5 2-0.5 6.1v47.7q-1-0.1-2.2 0-1-0.1-2 0l-39.5-51v38.1q0 3.9 0.6 6.2 0.8 2.1 2.9 3.1 2.1 0.9 6.2 1.3v2q-2-0.2-5-0.2-2.9-0.1-5.8-0.1-2.4 0-4.9 0.1-2.3 0-3.9 0.2v-2q3.2-0.4 4.8-1.3 1.7-1 2.2-3.1 0.6-2.3 0.6-6.2v-37q0-3.6-0.6-5.3-0.5-1.8-2.2-2.4-1.6-0.7-4.8-0.8v-2q1.6 0.1 3.9 0.2 2.5 0.1 4.9 0.1 3 0 5.9-0.1 2.8-0.1 5.1-0.2l31.6 40.7v-28q0-4.1-0.9-6.1-0.6-2.3-2.7-3.2-2.1-1.1-6.2-1.4v-2q2 0.1 5 0.2 3 0.1 5.8 0.1 2.5 0 4.9-0.1 2.4-0.1 3.9-0.2zm63.7 0q-0.4 3.9-0.6 7.5-0.1 3.5-0.1 5.4 0 2.5 0.1 4.7 0.1 2.3 0.2 3.8h-2.3q-1-7.1-2.9-11.3-1.6-4.2-4.7-5.9-2.9-1.9-7.8-1.9h-4.2v46.3q0 4 0.7 6 0.8 1.9 3 2.6 2.2 0.7 6.3 0.9v2q-1.7-0.1-4.7-0.1-2.9-0.1-6-0.1-3.2-0.1-6-0.1-2.9 0-6.2 0.1-3.1 0-5.9 0.1-2.7 0-4.3 0.1v-2q4.2-0.2 6.4-0.9 2.1-0.7 2.8-2.6 0.8-2 0.8-6v-46.3h-4.1q-4.9 0-7.9 1.9-3 1.7-4.8 5.9-1.6 4.2-2.8 11.3h-2.2q0.2-1.6 0.2-3.8 0.1-2.2 0.1-4.7 0-1.9-0.2-5.4-0.1-3.6-0.5-7.5 4.2 0.1 9.3 0.2 5 0.1 10 0.1 5.2 0 9.3 0 4.3 0 9.3 0 5.1 0 10.3-0.1 5.1-0.1 9.4-0.2zm56.3 0q-0.4 3.4-0.5 6.7-0.2 3.1-0.2 4.8 0 1.8 0.1 3.5 0.1 1.5 0.2 2.6h-2.2q-1.3-8.6-4.7-11.9-3.3-3.4-9.5-3.4h-4.9q-2.7 0-4.2 0.5-1.5 0.4-2.1 2-0.5 1.4-0.5 4.5v41.5q0 3.1 0.5 4.7 0.6 1.4 2.1 1.9 1.5 0.4 4.2 0.4h5.2q4.7 0 7.9-1.6 3.2-1.6 5.1-5.4 2-3.9 2.8-10.3h2.3q-0.3 2.7-0.3 7.2 0 1.8 0.1 5.3 0.2 3.4 0.6 7.1-4.8-0.2-10.9-0.2-6-0.1-10.7-0.1-3.1 0-8.2 0-5.1 0-10.8 0.1-5.6 0-10.6 0.2v-2q3.2-0.2 4.8-0.8 1.6-0.6 2.2-2.3 0.6-1.8 0.6-5.4v-39.1q0-3.6-0.6-5.3-0.6-1.8-2.3-2.4-1.5-0.7-4.7-0.8v-2q5 0.1 10.6 0.2 5.7 0.1 10.8 0.1 5.1 0 8.2 0 4.3 0 9.8 0 5.5-0.1 9.8-0.3zm-31.5 28.9h16.8q0 0-0.1 1 0.1 1 0.1 1h-16.8q0 0 0-1 0-1 0-1zm18.2-10.5h2.3q-0.4 4.6-0.4 7 0.1 2.5 0.1 4.5 0 2 0 4.4 0.2 2.5 0.6 7h-2.3q-0.3-2.6-1.4-5-0.9-2.4-2.9-3.9-1.9-1.5-5.4-1.5v-2q3.5 0 5.4-1.8 1.9-1.8 2.7-4.2 1-2.5 1.3-4.5zm53-18.4q16.8 0 25 7.6 8.3 7.5 8.3 21.7 0 9.3-4.1 16.2-3.9 6.9-11.6 10.7-7.6 3.9-18.5 3.9-1.6 0-4.3-0.1-2.6-0.1-5.6-0.1-2.8-0.1-5.1-0.1-3.7 0-7.3 0.1-3.6 0-5.7 0.2v-2q3.2-0.2 4.8-0.8 1.6-0.6 2.2-2.3 0.6-1.8 0.6-5.4v-39.1q0-3.6-0.6-5.4-0.6-1.8-2.3-2.4-1.5-0.6-4.7-0.7v-2q2.2 0.1 5.7 0.3 3.6 0.1 7.1 0 2.4-0.1 5.3-0.1 3.1-0.1 5.9-0.1 2.9-0.1 4.9-0.1zm-1.7 1.8q-4.1 0-5.3 1.7-1.2 1.7-1.2 6.8v39.5q0 5.2 1.2 6.8 1.4 1.7 5.4 1.7 8.3 0 12.8-3.2 4.6-3.4 6.4-9.7 1.9-6.4 1.9-15.7 0-9.4-2.1-15.5-1.9-6.3-6.6-9.3-4.6-3.1-12.5-3.1zm66.8 0.2v-2q2.2 0.1 5.7 0.2 3.6 0.1 7.1 0.1 4.7 0 9-0.1 4.3-0.1 6.1-0.1 11.4 0 16.8 3.7 5.4 3.6 5.4 9.9 0 4.6-3.7 8.5-3.6 3.6-12.7 5.7v0.2q8.4 0.9 13.1 3.4 4.7 2.3 6.5 5.6 2 3.1 2 6.8 0 7.4-6.6 11.9-6.5 4.3-18.5 4.3-2.2 0-6.7-0.1-4.3-0.2-10.5-0.2-3.7 0-7.3 0.1-3.5 0-5.7 0.2v-2q3.2-0.2 4.8-0.8 1.6-0.6 2.2-2.3 0.6-1.8 0.6-5.4v-39.1q0-3.6-0.6-5.4-0.6-1.8-2.3-2.4-1.5-0.6-4.7-0.7zm26.2 0q-3.4 0-4.5 1.7-1 1.7-1 6.8v39.1q0 3.5 0.4 5.3 0.5 1.7 1.6 2.3 1.3 0.6 3.6 0.6 8 0 11.5-3.6 3.6-3.8 3.6-10.7 0-6.7-3.5-10.3-3.4-3.6-11.5-3.6h-9.2q0 0 0-0.8 0-0.9 0-0.9h7.5q4.8 0 7.4-1.7 2.6-1.8 3.5-4.7 1.1-3.1 1.1-6.7 0-6.3-2.5-9.5-2.3-3.3-8-3.3zm88.7-2v2.1q-2 0.7-3.8 2.8-1.8 2.1-4.2 6.5l-18.5 33.6h-3.7l-21.8-37.3q-1.9-3.2-3.2-4.2-1.2-1.1-2.5-1.4v-2.1q2.6 0.2 5.1 0.4 2.5 0.1 5.5 0.1 3.8 0 7.9-0.1 4.1-0.2 8.3-0.4v2.1q-2.2 0-4.1 0.4-1.8 0.4-2.3 1.7-0.5 1.3 1.2 4.3l14.4 24.7-2.4 2.5 10.2-18.2q3.1-5.6 3.2-8.9 0.4-3.3-1.6-4.8-1.9-1.6-5.6-1.7v-2.1q2.8 0.2 5.3 0.3 2.5 0.1 5 0.1 1.8 0 4-0.1 2.3-0.1 3.6-0.3zm-27 41l6.3-9v17.2q0 3.7 0.6 5.7 0.7 1.8 2.5 2.4 2 0.6 5.7 0.8v2q-1.6-0.1-4.4-0.1-2.7-0.1-5.7-0.1-2.9-0.1-5.4-0.1-2.8 0-5.8 0.1-2.9 0-5.5 0.1-2.5 0-3.9 0.1v-2q3.6-0.2 5.5-0.8 1.9-0.6 2.5-2.4 0.7-2 0.7-5.7v-16.4z"/></svg>